<svg width="300" height="300" viewBox="0 0 300 300" fill="none" xmlns="http://www.w3.org/2000/svg">
<path d="M300 150.39C300 233.233 232.843 300.39 150 300.39C67.1573 300.39 0 233.233 0 150.39C0 67.5474 67.1573 0.390137 150 0.390137C232.843 0.390137 300 67.5474 300 150.39Z" fill="black"/>
<path fill-rule="evenodd" clip-rule="evenodd" d="M91.3997 212.975L138.423 130.04C151.521 105.401 182.741 56.0271 202.838 55.6406C205.737 55.7479 208.292 60.1373 201.959 73.6879C193.17 92.4918 179.417 102.34 170.148 105.724C171.543 107.71 173.153 113.862 168.902 118.757C167.433 120.449 165.21 122.757 162.551 125.517C155.592 132.741 145.647 143.065 138.423 153.552C128.439 168.045 123.285 175.614 122.48 179.801C135.095 165.469 164.866 139.67 183.031 151.136C188.399 155.592 193.885 169.914 172.885 191.557C162.632 201.112 132.473 219.384 99.9571 219.728C97.4465 219.755 94.8903 223.122 94.3984 227.156C93.9065 231.19 93.161 232.739 87.9822 234.731L79.5881 238.643C77.9519 239.378 75.2772 239.967 77.6674 236.438L89.1204 217.018C86.6306 215.785 81.6938 213.034 81.8645 211.896L83.8563 208.908C85.1624 209.817 88.4997 211.904 91.3997 212.975ZM196.451 64.2475C194.374 71.7771 184.802 90.4713 163.131 105.011L164.302 109.402C164.598 110.434 164.526 113.124 161.865 115.627L147.764 129.983C152.804 121.014 164.47 101.21 170.815 93.7392C172.944 91.2312 175.57 88.0452 178.328 84.6989C185.84 75.5853 194.331 65.2826 196.451 64.2475ZM100.93 214.869C115.394 194.188 149.621 153.476 170.815 156.07C173.014 156.463 176.528 159.695 172.992 169.48C168.571 181.711 147.498 211.037 100.93 214.869Z" fill="white"/>
</svg>
